<svg xmlns="http://www.w3.org/2000/svg" version="1.0" width="109.000000pt" height="61.000000pt" viewBox="0 0 109.000000 61.000000" preserveAspectRatio="xMidYMid meet">

<g transform="translate(0.000000,61.000000) scale(0.100000,-0.100000)" fill="#4c51e1"  stroke="none">
<path d="M92 176 c-45 -13 -84 -25 -87 -27 -2 -3 27 -36 65 -74 38 -38 71 -67 74 -64 2 2 15 46 29 97 17 62 22 92 14 91 -7 0 -49 -11 -95 -23z m88 0 c0 -1 -4 -16 -10 -32 -5 -16 -14 -49 -20 -73 l-12 -44 -54 54 c-30 29 -54 56 -54 59 0 4 28 14 63 22 66 17 87 20 87 14z"/>
</g>
<g transform="translate(83.00000,0.000000) scale(0.100000,-0.100000) rotate(180)" fill="#4c51e1"  stroke="none">
<path d="M92 176 c-45 -13 -84 -25 -87 -27 -2 -3 27 -36 65 -74 38 -38 71 -67 74 -64 2 2 15 46 29 97 17 62 22 92 14 91 -7 0 -49 -11 -95 -23z m88 0 c0 -1 -4 -16 -10 -32 -5 -16 -14 -49 -20 -73 l-12 -44 -54 54 c-30 29 -54 56 -54 59 0 4 28 14 63 22 66 17 87 20 87 14z"/>
</g></svg>